# xmcd
# Track frame offsets:
# 150
# 11070
# 24247
# 40435
# 57785
# 71282
# 83802
# 97342
# 111567
# 127502
# 142102
# 159317
# 178155
# 193550
# 208172
# 220635
#
# Disc length: 3166 seconds
# Revision: 0
# Processed by: cddbd v1.5PL3 Copyright (c) Steve Scherf et al.
# Submitted via: VisiTrax 2.9.6.190 - For more info visit www.synapsa.com
#
DISCID=e00c5c10
DTITLE=Kandis - Kandis 10
DYEAR=2004
DGENRE=Pop
TTITLE0=Kandis - Biffen
TTITLE1=Kandis - De Sange Vi Sang Engang
TTITLE2=Kandis - Nu Rejser Jeg Hjem
TTITLE3=Kandis med Heidi Hauge - Blanket On The Ground
TTITLE4=Kandis - Ingen Er Så Dejlig Som Du Er
TTITLE5=Kandis - Blue Jeans In New Orleans
TTITLE6=Kandis - Det Var Den Sommer
TTITLE7=Kandis - Tårer Fra Himlen
TTITLE8=Kandis - Veronica
TTITLE9=Kandis - Gør Det Selv
TTITLE10=Kandis med Heidi Hauge - Et Lille Kys
TTITLE11=Kandis - Whose Bed Has Your Boots been Under
TTITLE12=Kandis - Sole D'Italy
TTITLE13=Kandis - Det Er Let At Være Vild Med En Som Dig
TTITLE14=Kandis - 15 Glade År
TTITLE15=Kandis - Slank Igen
EXTD=
EXTT0=
EXTT1=
EXTT2=
EXTT3=
EXTT4=
EXTT5=
EXTT6=
EXTT7=
EXTT8=
EXTT9=
EXTT10=
EXTT11=
EXTT12=
EXTT13=
EXTT14=
EXTT15=
PLAYORDER=
